<svg width="81" height="55" viewBox="0 0 81 55" fill="none" xmlns="http://www.w3.org/2000/svg">
<path fill-rule="evenodd" clip-rule="evenodd" d="M7.67208 0.995361C7.76953 8.59258 7.43822 22.5335 0.65625 38.0318C4.41888 39.9114 12.0287 42.9009 25.7328 43.3212C26.4332 43.3426 27.0746 43.7206 27.4086 44.3208L32.4265 53.3372C32.8305 54.0631 33.6722 54.4517 34.504 54.2938C38.6632 53.5051 41.8838 52.7976 44.6851 52.1822C52.1322 50.5465 56.6163 49.5615 67.8913 49.4276C61.655 46.3888 54.9315 46.2938 37.2945 46.2938L35.638 43.065C38.775 43.0868 41.7605 42.9765 44.7541 42.8657C54.686 42.4982 64.7083 42.1275 80.6562 46.5787C79.912 46.1434 79.242 45.6881 78.5548 45.2212C73.9014 42.0599 68.4662 38.3674 33.8996 36.7602C33.1345 36.7247 32.4362 36.2582 32.1523 35.565C27.7081 24.7141 20.279 7.32176 7.67208 0.995361ZM16.0521 20.6532L13.5186 33.5684L23.3299 35.8702C23.6333 35.9414 23.8958 35.6563 23.7841 35.372C22.1263 31.1558 18.6372 23.2446 16.0521 20.6532Z" fill="white"/>
<path fill-rule="evenodd" clip-rule="evenodd" d="M16.2252 3.01257C21.488 8.48845 28.4333 15.7145 34.3319 32.5141C34.5934 33.2586 35.2932 33.7838 36.1004 33.8124C38.7559 33.9067 41.4403 33.9275 44.1684 33.949C53.839 34.0248 64.0591 34.1049 75.4916 37.462C73.6402 29.6748 56.6853 8.4026 15.5647 2.32483C15.7816 2.55123 16.0018 2.78047 16.2252 3.01257ZM35.9301 16.6646L40.7525 26.7601C41.0271 27.3352 41.5763 27.7394 42.2206 27.8294C43.4864 28.0065 44.8414 28.1747 46.2609 28.3512C55.4938 29.4978 67.46 30.984 75.4429 37.4145C68.0373 29.0575 57.1725 18.5639 35.9301 16.6646Z" fill="#05F676"/>
</svg>
