<svg width="631" height="632" viewBox="0 0 631 632" fill="none" xmlns="http://www.w3.org/2000/svg">
<rect x="0.46109" y="0.994934" width="630.262" height="630.262" rx="315.131" fill="#040615"/>
<path fill-rule="evenodd" clip-rule="evenodd" d="M146.342 175.724C146.842 215.724 145.142 289.124 110.342 370.724C129.649 380.62 168.697 396.36 239.016 398.573C242.61 398.686 245.901 400.676 247.615 403.836L273.363 451.308C275.436 455.13 279.755 457.176 284.023 456.345C305.365 452.192 321.891 448.467 336.265 445.227C374.478 436.615 397.487 431.429 455.342 430.724C423.342 414.724 388.842 414.224 298.342 414.224L289.842 397.224C305.939 397.339 321.258 396.758 336.619 396.175C387.582 394.24 439.009 392.288 520.842 415.724C517.023 413.432 513.585 411.035 510.059 408.577C486.181 391.932 458.292 372.491 280.922 364.029C276.996 363.842 273.413 361.386 271.956 357.736C249.152 300.605 211.031 209.033 146.342 175.724ZM189.342 279.224L176.342 347.224L226.686 359.343C228.243 359.718 229.59 358.217 229.017 356.72C220.51 334.521 202.607 292.868 189.342 279.224Z" fill="white"/>
<path fill-rule="evenodd" clip-rule="evenodd" d="M190.231 186.345C217.236 215.176 252.874 253.222 283.141 341.673C284.483 345.593 288.074 348.358 292.216 348.509C305.842 349.005 319.616 349.115 333.615 349.228C383.237 349.627 435.679 350.049 494.342 367.724C484.842 326.724 397.842 214.724 186.842 182.724C187.955 183.916 189.085 185.123 190.231 186.345ZM291.342 258.224L316.087 311.378C317.496 314.406 320.314 316.534 323.62 317.008C330.115 317.94 337.068 318.826 344.352 319.755C391.728 325.792 453.13 333.617 494.092 367.474C456.092 323.474 400.342 268.224 291.342 258.224Z" fill="#05F676"/>
</svg>
